<svg width="24" height="25" viewBox="0 0 24 25" fill="none" xmlns="http://www.w3.org/2000/svg">
<path d="M5 13.7461H8M2 9.74609L4 10.7461L5.27064 6.93416C5.53292 6.14734 5.66405 5.75393 5.90729 5.46307C6.12208 5.20623 6.39792 5.00742 6.70951 4.88487C7.06236 4.74609 7.47705 4.74609 8.30643 4.74609H15.6936C16.523 4.74609 16.9376 4.74609 17.2905 4.88487C17.6021 5.00742 17.8779 5.20623 18.0927 5.46307C18.3359 5.75393 18.4671 6.14734 18.7294 6.93417L20 10.7461L22 9.74609M16 13.7461H19M6.8 10.7461H17.2C18.8802 10.7461 19.7202 10.7461 20.362 11.0731C20.9265 11.3607 21.3854 11.8196 21.673 12.3841C22 13.0259 22 13.8659 22 15.5461V18.2461C22 18.7107 22 18.9431 21.9616 19.1363C21.8038 19.9297 21.1836 20.5499 20.3902 20.7077C20.197 20.7461 19.9647 20.7461 19.5 20.7461H19C17.8954 20.7461 17 19.8507 17 18.7461C17 18.47 16.7761 18.2461 16.5 18.2461H7.5C7.22386 18.2461 7 18.47 7 18.7461C7 19.8507 6.10457 20.7461 5 20.7461H4.5C4.03534 20.7461 3.80302 20.7461 3.60982 20.7077C2.81644 20.5499 2.19624 19.9297 2.03843 19.1363C2 18.9431 2 18.7107 2 18.2461V15.5461C2 13.8659 2 13.0259 2.32698 12.3841C2.6146 11.8196 3.07354 11.3607 3.63803 11.0731C4.27976 10.7461 5.11984 10.7461 6.8 10.7461Z" stroke="black" stroke-width="1.75" stroke-linecap="round" stroke-linejoin="round"/>
</svg>
