<svg width="40" height="40" viewBox="0 0 40 40" fill="none" xmlns="http://www.w3.org/2000/svg">
<path d="M25.7946 21.4824L28.3196 35.6924C28.3479 35.8597 28.3244 36.0317 28.2523 36.1853C28.1802 36.339 28.0629 36.4669 27.9161 36.5521C27.7694 36.6373 27.6001 36.6756 27.4309 36.6619C27.2618 36.6483 27.1008 36.5833 26.9696 36.4758L21.0029 31.9974C20.7149 31.7822 20.365 31.666 20.0054 31.666C19.6459 31.666 19.296 31.7822 19.0079 31.9974L13.0313 36.4741C12.9001 36.5815 12.7394 36.6463 12.5704 36.66C12.4015 36.6737 12.2324 36.6355 12.0857 36.5505C11.939 36.4656 11.8217 36.338 11.7495 36.1846C11.6772 36.0313 11.6534 35.8596 11.6813 35.6924L14.2046 21.4824" stroke="black" stroke-width="3.33333" stroke-linecap="round" stroke-linejoin="round"/>
<path d="M20 23.334C25.5228 23.334 30 18.8568 30 13.334C30 7.81114 25.5228 3.33398 20 3.33398C14.4772 3.33398 10 7.81114 10 13.334C10 18.8568 14.4772 23.334 20 23.334Z" stroke="black" stroke-width="3.33333" stroke-linecap="round" stroke-linejoin="round"/>
</svg>
