<svg width="32" height="32" viewBox="0 0 32 32" fill="none" xmlns="http://www.w3.org/2000/svg">
<path d="M20.0003 3.27642C18.7376 2.87982 17.3939 2.66602 16.0003 2.66602C8.63653 2.66602 2.66699 8.63555 2.66699 15.9993C2.66699 23.3631 8.63653 29.3327 16.0003 29.3327C23.3641 29.3327 29.3337 23.3631 29.3337 15.9993C29.3337 13.7122 28.7578 11.5596 27.7432 9.67861M22.667 7.66602H22.6737M14.0004 29.1837L14.0005 26.2459C14.0005 26.0868 14.0575 25.9329 14.161 25.8121L17.4754 21.9452C17.7478 21.6274 17.6634 21.1402 17.3 20.9325L13.4917 18.7563C13.3882 18.6972 13.3025 18.6114 13.2434 18.5079L10.7609 14.1575C10.6317 13.9311 10.3824 13.8008 10.1228 13.8239L2.75257 14.4803M28.0003 7.99935C28.0003 10.9449 25.3337 13.3327 22.667 15.9993C20.0003 13.3327 17.3337 10.9449 17.3337 7.99935C17.3337 5.05383 19.7215 2.66602 22.667 2.66602C25.6125 2.66602 28.0003 5.05383 28.0003 7.99935ZM23.0003 7.66602C23.0003 7.85011 22.8511 7.99935 22.667 7.99935C22.4829 7.99935 22.3337 7.85011 22.3337 7.66602C22.3337 7.48192 22.4829 7.33268 22.667 7.33268C22.8511 7.33268 23.0003 7.48192 23.0003 7.66602Z" stroke="#BF872D" stroke-width="2" stroke-linecap="round" stroke-linejoin="round"/>
</svg>
