<svg width="24" height="25" viewBox="0 0 24 25" fill="none" xmlns="http://www.w3.org/2000/svg">
<path d="M15 3.2039C14.053 2.90645 13.0452 2.74609 12 2.74609C6.47715 2.74609 2 7.22325 2 12.7461C2 18.2689 6.47715 22.7461 12 22.7461C17.5228 22.7461 22 18.2689 22 12.7461C22 11.0308 21.5681 9.41631 20.8071 8.00554M17 6.49609H17.005M10.5001 22.6344L10.5002 20.431C10.5002 20.3117 10.5429 20.1963 10.6205 20.1057L13.1063 17.2055C13.3106 16.9672 13.2473 16.6017 12.9748 16.446L10.1185 14.8138C10.0409 14.7695 9.97663 14.7051 9.93234 14.6275L8.07046 11.3647C7.97356 11.1949 7.78657 11.0972 7.59183 11.1145L2.06418 11.6068M21 6.74609C21 8.95523 19 10.7461 17 12.7461C15 10.7461 13 8.95523 13 6.74609C13 4.53695 14.7909 2.74609 17 2.74609C19.2091 2.74609 21 4.53695 21 6.74609ZM17.25 6.49609C17.25 6.63416 17.1381 6.74609 17 6.74609C16.8619 6.74609 16.75 6.63416 16.75 6.49609C16.75 6.35802 16.8619 6.24609 17 6.24609C17.1381 6.24609 17.25 6.35802 17.25 6.49609Z" stroke="black" stroke-width="1.75" stroke-linecap="round" stroke-linejoin="round"/>
</svg>
