<svg width="204" height="36" viewBox="0 0 204 36" fill="none" xmlns="http://www.w3.org/2000/svg">
<path d="M89.9577 0C92.1916 0 94.1964 0.429594 95.9721 1.28878C97.7477 2.11933 99.2513 3.22196 100.483 4.59666C101.743 5.94272 102.702 7.47494 103.361 9.19332C104.048 10.9117 104.392 12.6587 104.392 14.4344C104.392 15.7232 104.263 16.9117 104.005 18C103.748 19.0883 103.39 20.0907 102.931 21.0072C102.473 21.9236 101.943 22.7685 101.342 23.5418C100.769 24.2864 100.139 24.9737 99.4518 25.6038L100.869 27.1933C101.986 28.2243 103.204 29.1408 104.521 29.9427C105.838 30.7733 107.17 31.4606 108.516 32.0048C109.862 32.5776 111.194 33.0072 112.511 33.2936C113.829 33.58 115.032 33.7231 116.12 33.7231C117.065 33.7231 118.068 33.6372 119.127 33.4654C120.215 33.2936 121.304 33.0358 122.392 32.6921C123.509 32.3484 124.612 31.8902 125.7 31.3174C126.788 30.7733 127.819 30.1146 128.793 29.3413L129.051 29.7279C128.106 30.7589 127.046 31.6611 125.872 32.4344C124.698 33.2363 123.466 33.895 122.177 34.4105C120.889 34.926 119.557 35.3126 118.182 35.5704C116.836 35.8568 115.504 36 114.187 36C112.869 36 111.552 35.8854 110.235 35.6563C108.917 35.4272 107.6 35.0406 106.282 34.4964C104.965 33.9523 103.647 33.2076 102.33 32.2625C101.013 31.3461 99.6952 30.1862 98.3778 28.7828L96.9172 27.2363C96.4303 27.5513 95.8718 27.8377 95.2417 28.0955C94.6403 28.3246 93.9959 28.5251 93.3086 28.6969C92.6212 28.8687 91.9195 28.9976 91.2036 29.0835C90.4876 29.1695 89.8145 29.2124 89.1845 29.2124C87.1797 29.2124 85.3181 28.8115 83.5997 28.0095C81.91 27.179 80.4351 26.105 79.1749 24.7876C77.9434 23.4415 76.9697 21.9093 76.2537 20.1909C75.5377 18.4726 75.1797 16.7112 75.1797 14.9069C75.1797 13.074 75.509 11.2697 76.1678 9.49403C76.8265 7.68974 77.7859 6.08592 79.046 4.68258C80.3348 3.27924 81.8957 2.14797 83.7286 1.28878C85.5616 0.429594 87.6379 0 89.9577 0ZM89.9148 27.7088C91.8336 27.6229 93.5234 27.1933 94.984 26.42C96.4446 25.6181 97.6475 24.6157 98.5926 23.4129C99.5663 22.1814 100.297 20.8353 100.784 19.3747C101.27 17.9141 101.514 16.4821 101.514 15.0788C101.514 13.5036 101.213 11.9141 100.612 10.3103C100.039 8.6778 99.2227 7.21718 98.163 5.9284C97.132 4.61098 95.8718 3.55131 94.3826 2.7494C92.8933 1.91885 91.2465 1.50358 89.4422 1.50358C87.6666 1.50358 86.0627 1.90453 84.6308 2.70644C83.2274 3.47971 82.0389 4.4821 81.0651 5.7136C80.0914 6.94511 79.3468 8.31981 78.8312 9.83771C78.3157 11.327 78.058 12.8019 78.058 14.2625C78.058 15.8377 78.3444 17.4272 78.9172 19.031C79.5186 20.6348 80.3491 22.0811 81.4088 23.3699C82.4685 24.6587 83.7143 25.7041 85.1463 26.506C86.6069 27.3079 88.1964 27.7088 89.9148 27.7088Z" fill="#BF872D"/>
<path d="M107.398 0H113.499V0.429594H113.284C113.055 0.429594 112.854 0.515512 112.682 0.68735C112.511 0.830548 112.353 1.01671 112.21 1.24582C112.095 1.47494 112.009 1.71838 111.952 1.97613C111.895 2.23389 111.866 2.46301 111.866 2.66348V19.6325C111.866 20.7494 111.981 21.7804 112.21 22.7255C112.439 23.6706 112.826 24.4869 113.37 25.1742C113.914 25.8616 114.63 26.4057 115.518 26.8067C116.406 27.179 117.494 27.3652 118.783 27.3652C120.215 27.3652 121.36 27.136 122.219 26.6778C123.079 26.2196 123.737 25.6325 124.196 24.9165C124.654 24.1718 124.955 23.3413 125.098 22.4248C125.241 21.5084 125.313 20.6062 125.313 19.7184V2.66348C125.313 2.46301 125.284 2.23389 125.227 1.97613C125.169 1.71838 125.069 1.47494 124.926 1.24582C124.811 1.01671 124.668 0.830548 124.496 0.68735C124.324 0.515512 124.138 0.429594 123.938 0.429594H123.723V0H128.406V0.429594H128.191C127.962 0.429594 127.761 0.515512 127.589 0.68735C127.446 0.830548 127.303 1.01671 127.16 1.24582C127.045 1.47494 126.959 1.71838 126.902 1.97613C126.845 2.23389 126.816 2.46301 126.816 2.66348V19.5895C126.816 21.4511 126.587 22.9833 126.129 24.1862C125.671 25.3604 125.04 26.2912 124.239 26.9785C123.437 27.6659 122.492 28.1384 121.403 28.3962C120.344 28.6539 119.212 28.7828 118.009 28.7828C116.721 28.7828 115.518 28.6396 114.401 28.3532C113.313 28.0955 112.367 27.6229 111.565 26.9356C110.764 26.2482 110.134 25.3174 109.675 24.1432C109.217 22.9403 108.988 21.4368 108.988 19.6325V2.66348C108.988 2.46301 108.959 2.23389 108.902 1.97613C108.845 1.71838 108.745 1.47494 108.601 1.24582C108.487 1.01671 108.344 0.830548 108.172 0.68735C108 0.515512 107.814 0.429594 107.613 0.429594H107.398V0Z" fill="#BF872D"/>
<path d="M152.621 27.9236H152.836V28.3532H146.778V27.9236H146.993C147.194 27.9236 147.38 27.8377 147.552 27.6659C147.723 27.494 147.867 27.2936 147.981 27.0644C148.124 26.8353 148.225 26.5919 148.282 26.3341C148.339 26.0477 148.368 25.79 148.368 25.5609V2.66348C148.368 2.46301 148.339 2.23389 148.282 1.97613C148.225 1.71838 148.124 1.47494 147.981 1.24582C147.867 1.01671 147.723 0.830548 147.552 0.68735C147.38 0.515512 147.194 0.429594 146.993 0.429594H146.778V0H154.253C157.117 0 159.322 0.558472 160.869 1.67542C162.444 2.79236 163.232 4.43914 163.232 6.61575C163.232 7.70406 163.046 8.66348 162.673 9.49403C162.33 10.2959 161.857 10.9976 161.256 11.599C160.654 12.1718 159.938 12.6444 159.108 13.0167C158.306 13.3604 157.447 13.6181 156.53 13.79L159.623 18.5155C160.368 19.6611 161.127 20.7924 161.9 21.9093C162.673 22.9976 163.432 24.1289 164.177 25.3031C164.377 25.5895 164.592 25.8902 164.821 26.2052C165.079 26.5203 165.337 26.8067 165.595 27.0644C165.881 27.3222 166.167 27.537 166.454 27.7088C166.769 27.852 167.084 27.9236 167.399 27.9236V28.3532H165.552C164.406 28.3532 163.461 28.0811 162.716 27.537C162 26.9642 161.399 26.3055 160.912 25.5609C159.623 23.6706 158.334 21.7518 157.046 19.8043C155.785 17.8568 154.525 15.9379 153.265 14.0477C152.95 14.0191 152.606 13.9905 152.234 13.9618C151.89 13.9045 151.561 13.8473 151.246 13.79V25.5609C151.246 25.79 151.275 26.0477 151.332 26.3341C151.389 26.5919 151.475 26.8353 151.59 27.0644C151.733 27.2936 151.876 27.494 152.019 27.6659C152.191 27.8377 152.392 27.9236 152.621 27.9236ZM151.246 1.46062V12.3723H151.461C151.69 12.401 152.048 12.4296 152.535 12.4582C153.05 12.4582 153.68 12.4582 154.425 12.4582C155.027 12.4582 155.657 12.3723 156.315 12.2005C157.003 12 157.633 11.685 158.206 11.2554C158.807 10.7971 159.294 10.21 159.666 9.49403C160.067 8.77804 160.268 7.87589 160.268 6.78759C160.268 5.69928 160.053 4.81146 159.623 4.12411C159.222 3.43675 158.649 2.8926 157.905 2.49165C157.189 2.09069 156.315 1.81861 155.284 1.67542C154.253 1.53222 153.122 1.46062 151.89 1.46062H151.246Z" fill="#BF872D"/>
<path d="M186.043 21.179C186.043 22.611 185.757 23.8425 185.184 24.8735C184.611 25.8759 183.866 26.6921 182.95 27.3222C182.062 27.9523 181.045 28.4105 179.9 28.6969C178.783 28.9833 177.666 29.1265 176.549 29.1265C175.403 29.1265 174.415 29.0119 173.585 28.7828C172.754 28.5537 171.995 28.3389 171.308 28.1384C170.85 27.9952 170.434 27.8807 170.062 27.7947C169.69 27.6802 169.317 27.6229 168.945 27.6229V22.7255H169.375C169.375 23.8138 169.647 24.6873 170.191 25.3461C170.764 25.9761 171.422 26.463 172.167 26.8067C172.912 27.1504 173.656 27.3795 174.401 27.494C175.146 27.58 175.69 27.6229 176.033 27.6229C177.265 27.6229 178.325 27.4511 179.212 27.1074C180.1 26.7351 180.831 26.2625 181.403 25.6897C181.976 25.0883 182.391 24.4296 182.649 23.7136C182.936 22.9976 183.079 22.2673 183.079 21.5227C183.079 20.5776 182.878 19.79 182.477 19.1599C182.076 18.5012 181.547 17.9284 180.888 17.4415C180.258 16.9547 179.528 16.5394 178.697 16.1957C177.866 15.852 177.022 15.5084 176.162 15.1647C175.189 14.7924 174.229 14.4057 173.284 14.0048C172.339 13.6038 171.494 13.1169 170.749 12.5442C170.005 11.9427 169.403 11.241 168.945 10.4391C168.487 9.60859 168.258 8.59188 168.258 7.38902C168.258 6.12888 168.501 5.04057 168.988 4.12411C169.475 3.179 170.119 2.40573 170.921 1.8043C171.752 1.20286 172.683 0.758949 173.714 0.472553C174.773 0.157518 175.847 0 176.936 0C177.68 0 178.382 0.0572793 179.041 0.171838C179.699 0.257756 180.329 0.372314 180.931 0.515512C181.418 0.63007 181.89 0.730309 182.349 0.816229C182.807 0.873507 183.251 0.902147 183.68 0.902147V5.32697H183.251C183.193 3.83771 182.606 2.83532 181.489 2.31981C180.372 1.77565 178.826 1.50358 176.85 1.50358C175.704 1.50358 174.759 1.70406 174.014 2.10501C173.298 2.47733 172.726 2.94988 172.296 3.52267C171.866 4.06683 171.566 4.66826 171.394 5.32697C171.251 5.95704 171.179 6.51551 171.179 7.00239C171.179 7.80429 171.351 8.49165 171.695 9.06444C172.067 9.63723 172.554 10.1384 173.155 10.568C173.757 10.9976 174.444 11.3842 175.217 11.7279C176.019 12.0716 176.85 12.401 177.709 12.716C178.683 13.0883 179.671 13.4893 180.673 13.9189C181.675 14.3484 182.563 14.8783 183.337 15.5084C184.138 16.1384 184.783 16.9117 185.27 17.8282C185.785 18.7446 186.043 19.8616 186.043 21.179Z" fill="#BF872D"/>
<path d="M186.158 27.9236H186.373C186.602 27.9236 186.803 27.852 186.974 27.7088C187.146 27.537 187.289 27.3365 187.404 27.1074C187.547 26.8783 187.647 26.6348 187.705 26.3771C187.791 26.1193 187.834 25.8759 187.834 25.6468V2.66348C187.834 2.46301 187.791 2.23389 187.705 1.97613C187.647 1.71838 187.547 1.47494 187.404 1.24582C187.289 1.01671 187.146 0.830548 186.974 0.68735C186.803 0.515512 186.602 0.429594 186.373 0.429594H186.158V0H202.698V3.99523H202.268C202.211 3.33651 201.953 2.76372 201.495 2.27685C201.036 1.76134 200.32 1.50358 199.347 1.50358H190.712V12.3723H197.843C198.502 12.3723 199.046 12.1718 199.476 11.7709C199.934 11.3699 200.163 10.8974 200.163 10.3532H200.593V15.7232H200.163C200.163 15.2076 199.948 14.7637 199.519 14.3914C199.089 14.0191 198.531 13.8329 197.843 13.8329H190.712V26.8496H200.12C200.664 26.8496 201.137 26.7208 201.538 26.463C201.939 26.2052 202.268 25.9045 202.526 25.5609C202.812 25.1885 203.013 24.8019 203.127 24.401C203.27 23.9714 203.342 23.6134 203.342 23.327H203.772V28.3532H186.158V27.9236Z" fill="#BF872D"/>
<path d="M128.879 27.9236H129.094C129.323 27.9236 129.523 27.852 129.695 27.7088C129.867 27.537 130.01 27.3365 130.125 27.1074C130.268 26.8783 130.368 26.6348 130.425 26.3771C130.511 26.1193 130.554 25.8759 130.554 25.6468V2.66348C130.554 2.46301 130.511 2.23389 130.425 1.97613C130.368 1.71838 130.268 1.47494 130.125 1.24582C130.01 1.01671 129.867 0.830548 129.695 0.68735C129.523 0.515512 129.323 0.429594 129.094 0.429594H128.879V0H145.418V3.99523H144.989C144.931 3.33651 144.674 2.76372 144.215 2.27685C143.757 1.76134 143.041 1.50358 142.067 1.50358H133.433V12.3723H140.564C141.223 12.3723 141.767 12.1718 142.196 11.7709C142.655 11.3699 142.884 10.8974 142.884 10.3532H143.313V15.7232H142.884C142.884 15.2076 142.669 14.7637 142.239 14.3914C141.81 14.0191 141.251 13.8329 140.564 13.8329H133.433V26.8496H142.841C143.385 26.8496 143.857 26.7208 144.258 26.463C144.659 26.2052 144.989 25.9045 145.246 25.5609C145.533 25.1885 145.733 24.8019 145.848 24.401C145.991 23.9714 146.063 23.6134 146.063 23.327H146.492V28.3532H128.879V27.9236Z" fill="#BF872D"/>
<path d="M56.6054 27.9236H56.8202V28.3532H52.0517V27.9236H52.2665C52.467 27.9236 52.6532 27.8377 52.825 27.6659C53.0255 27.494 53.183 27.2936 53.2976 27.0644C53.4121 26.8353 53.498 26.5919 53.5553 26.3341C53.6412 26.0477 53.6842 25.79 53.6842 25.5609V2.66348C53.6842 2.46301 53.6556 2.23389 53.5983 1.97613C53.5696 1.71838 53.498 1.47494 53.3835 1.24582C53.2689 1.01671 53.1114 0.830548 52.9109 0.68735C52.7105 0.515512 52.467 0.429594 52.1806 0.429594H51.9658V0H56.3047L71.899 24.5728V2.66348C71.899 2.46301 71.856 2.23389 71.7701 1.97613C71.7128 1.71838 71.6126 1.47494 71.4694 1.24582C71.3548 1.01671 71.2116 0.830548 71.0398 0.68735C70.868 0.515512 70.6675 0.429594 70.4384 0.429594H70.2236V0H75.035V0.429594H74.8202C74.5911 0.429594 74.3906 0.515512 74.2188 0.68735C74.047 0.830548 73.8894 1.01671 73.7462 1.24582C73.6317 1.47494 73.5458 1.71838 73.4885 1.97613C73.4312 2.23389 73.4026 2.46301 73.4026 2.66348V15.5084V28.3532H70.7391L55.1878 3.69451V25.5609C55.1878 25.79 55.2164 26.0477 55.2737 26.3341C55.331 26.5919 55.4169 26.8353 55.5315 27.0644C55.6747 27.2936 55.8322 27.494 56.004 27.6659C56.1758 27.8377 56.3763 27.9236 56.6054 27.9236Z" fill="#BF872D"/>
<path d="M15.3795 1.54654C13.2601 1.54654 11.4129 1.93317 9.83771 2.70644C8.29117 3.45107 7.00239 4.43914 5.97136 5.67064C4.94033 6.87351 4.16707 8.23389 3.65155 9.75179C3.16468 11.2697 2.92124 12.7733 2.92124 14.2625C2.92124 15.9523 3.2506 17.6134 3.90931 19.2458C4.56802 20.8496 5.47017 22.2816 6.61575 23.5418C7.78997 24.7733 9.15036 25.7757 10.6969 26.5489C12.2434 27.2936 13.9189 27.6659 15.7232 27.6659C16.2387 27.6659 16.8401 27.6086 17.5274 27.494C18.2434 27.3795 18.9451 27.1647 19.6325 26.8496C20.3198 26.506 20.9499 26.0334 21.5227 25.432C22.1241 24.8305 22.5823 24.043 22.8974 23.0692H23.327V27.8377C22.8974 27.8377 22.4391 27.895 21.9523 28.0095C21.494 28.1241 20.9785 28.253 20.4057 28.3962C19.6611 28.5967 18.8305 28.7828 17.9141 28.9547C17.0263 29.1265 16.0811 29.2124 15.0788 29.2124C12.5871 29.2124 10.3962 28.7828 8.50597 27.9236C6.61575 27.0644 5.04057 25.9475 3.78043 24.5728C2.52029 23.1981 1.57518 21.6515 0.945107 19.9332C0.315035 18.1862 0 16.4248 0 14.6492C0 12.8735 0.315035 11.1122 0.945107 9.36515C1.57518 7.61814 2.53461 6.05728 3.82339 4.68258C5.11217 3.27924 6.73031 2.14797 8.6778 1.28878C10.6253 0.429594 12.9165 0 15.5513 0C16.4964 0 17.3413 0.0859186 18.0859 0.257756C18.8592 0.429593 19.5465 0.601431 20.148 0.77327C20.5776 0.916468 20.9642 1.03103 21.3079 1.11694C21.6802 1.17422 22.0382 1.20286 22.3819 1.20286V5.97136H21.9523C21.7804 5.08353 21.4654 4.35322 21.0072 3.78043C20.5489 3.179 20.0048 2.72076 19.3747 2.40573C18.7733 2.09069 18.1146 1.8759 17.3986 1.76134C16.7112 1.61814 16.0382 1.54654 15.3795 1.54654Z" fill="#BF872D"/>
<path d="M38 26C36.34 26 34.78 25.6848 33.32 25.0544C31.86 24.424 30.59 23.5692 29.51 22.49C28.43 21.4108 27.5752 20.1408 26.9456 18.68C26.316 17.2192 26.0008 15.6592 26 14C25.9992 12.3408 26.3144 10.7808 26.9456 9.32C27.5768 7.8592 28.4316 6.5892 29.51 5.51C30.5884 4.4308 31.8584 3.576 33.32 2.9456C34.7816 2.3152 36.3416 2 38 2C39.6584 2 41.2184 2.3152 42.68 2.9456C44.1416 3.576 45.4116 4.4308 46.49 5.51C47.5684 6.5892 48.4236 7.8592 49.0556 9.32C49.6876 10.7808 50.0024 12.3408 50 14C49.9976 15.6592 49.6824 17.2192 49.0544 18.68C48.4264 20.1408 47.5716 21.4108 46.49 22.49C45.4084 23.5692 44.1384 24.4244 42.68 25.0556C41.2216 25.6868 39.6616 26.0016 38 26ZM38 23.6C40.68 23.6 42.95 22.67 44.81 20.81C46.67 18.95 47.6 16.68 47.6 14C47.6 13.86 47.5952 13.7148 47.5856 13.5644C47.576 13.414 47.5708 13.2892 47.57 13.19C47.47 13.77 47.2 14.25 46.76 14.63C46.32 15.01 45.8 15.2 45.2 15.2H42.8C42.14 15.2 41.5752 14.9652 41.1056 14.4956C40.636 14.026 40.4008 13.4608 40.4 12.8V11.6H35.6V9.2C35.6 8.54 35.8352 7.9752 36.3056 7.5056C36.776 7.036 37.3408 6.8008 38 6.8H39.2C39.2 6.34 39.3252 5.9352 39.5756 5.5856C39.826 5.236 40.1308 4.9508 40.49 4.73C40.09 4.63 39.6852 4.55 39.2756 4.49C38.866 4.43 38.4408 4.4 38 4.4C35.32 4.4 33.05 5.33 31.19 7.19C29.33 9.05 28.4 11.32 28.4 14H34.4C35.72 14 36.85 14.47 37.79 15.41C38.73 16.35 39.2 17.48 39.2 18.8V20H35.6V23.3C36 23.4 36.3952 23.4752 36.7856 23.5256C37.176 23.576 37.5808 23.6008 38 23.6Z" fill="white"/>
</svg>
