<svg width="24" height="25" viewBox="0 0 24 25" fill="none" xmlns="http://www.w3.org/2000/svg">
<path d="M9 12.2465L11 14.2465L15.5 9.74645M20 12.7465C20 17.6549 14.646 21.2249 12.698 22.3613C12.4766 22.4905 12.3659 22.5551 12.2097 22.5886C12.0884 22.6146 11.9116 22.6146 11.7903 22.5886C11.6341 22.5551 11.5234 22.4905 11.302 22.3613C9.35396 21.2249 4 17.6549 4 12.7465V7.96405C4 7.16454 4 6.76479 4.13076 6.42116C4.24627 6.11759 4.43398 5.84673 4.67766 5.63198C4.9535 5.38889 5.3278 5.24853 6.0764 4.9678L11.4382 2.95713C11.6461 2.87917 11.75 2.84019 11.857 2.82473C11.9518 2.81103 12.0482 2.81103 12.143 2.82473C12.25 2.84019 12.3539 2.87917 12.5618 2.95713L17.9236 4.9678C18.6722 5.24853 19.0465 5.38889 19.3223 5.63198C19.566 5.84673 19.7537 6.11759 19.8692 6.42116C20 6.76479 20 7.16454 20 7.96405V12.7465Z" stroke="black" stroke-width="1.75" stroke-linecap="round" stroke-linejoin="round"/>
</svg>
