<svg width="32" height="32" viewBox="0 0 32 32" fill="none" xmlns="http://www.w3.org/2000/svg">
<path d="M11.9997 15.3338L14.6663 18.0005L20.6663 12.0005M26.6663 16.0005C26.6663 22.5451 19.5277 27.305 16.9303 28.8203C16.6351 28.9925 16.4875 29.0786 16.2792 29.1233C16.1176 29.158 15.8818 29.158 15.7201 29.1233C15.5118 29.0786 15.3642 28.9925 15.069 28.8203C12.4716 27.305 5.33301 22.5451 5.33301 16.0005V9.62395C5.33301 8.55793 5.33301 8.02492 5.50735 7.56675C5.66137 7.162 5.91165 6.80085 6.23655 6.51452C6.60433 6.1904 7.10341 6.00325 8.10155 5.62894L15.2506 2.94804C15.5278 2.8441 15.6664 2.79212 15.809 2.77152C15.9355 2.75324 16.0639 2.75324 16.1904 2.77152C16.3329 2.79212 16.4715 2.8441 16.7487 2.94804L23.8978 5.62894C24.8959 6.00325 25.395 6.1904 25.7628 6.51452C26.0877 6.80085 26.338 7.162 26.492 7.56675C26.6663 8.02492 26.6663 8.55793 26.6663 9.62395V16.0005Z" stroke="#BF872D" stroke-width="2" stroke-linecap="round" stroke-linejoin="round"/>
</svg>
